<svg width="24" height="22" viewBox="0 0 24 22" fill="none" xmlns="http://www.w3.org/2000/svg">
<path d="M8.66667 0C7.42083 0 6.3875 0.854167 6.09167 2.00833C6.05833 2.00833 6.03333 2 6 2C4.52917 2 3.33333 3.19583 3.33333 4.66667C3.33333 4.86667 3.35833 5.0625 3.40417 5.25C2.1875 5.75 1.33333 6.94167 1.33333 8.33333C1.33333 8.85833 1.46667 9.34583 1.67917 9.7875C0.679167 10.3625 0 11.4292 0 12.6667C0 14.0542 0.85 15.2458 2.05833 15.7458C2.02083 15.9375 2 16.1333 2 16.3333C2 17.9917 3.34167 19.3333 5 19.3333C5.17083 19.3333 5.3375 19.3125 5.5 19.2833C5.9 20.4708 7.00833 21.3333 8.33333 21.3333C9.99167 21.3333 11.3333 19.9917 11.3333 18.3333V2.66667C11.3333 1.19583 10.1375 0 8.66667 0ZM24 12.6667C24 11.4292 23.3208 10.3625 22.3208 9.7875C22.5375 9.34583 22.6667 8.85833 22.6667 8.33333C22.6667 6.94167 21.8125 5.75 20.5958 5.25C20.6375 5.0625 20.6667 4.86667 20.6667 4.66667C20.6667 3.19583 19.4708 2 18 2C17.9667 2 17.9375 2.00833 17.9083 2.00833C17.6125 0.854167 16.5792 0 15.3333 0C13.8625 0 12.6667 1.19167 12.6667 2.66667V18.3333C12.6667 19.9917 14.0083 21.3333 15.6667 21.3333C16.9917 21.3333 18.1 20.4708 18.5 19.2833C18.6625 19.3125 18.8292 19.3333 19 19.3333C20.6583 19.3333 22 17.9917 22 16.3333C22 16.1333 21.9792 15.9375 21.9417 15.7458C23.15 15.2458 24 14.0542 24 12.6667Z" fill="#F6921E"/>
</svg>
