<svg width="22" height="14" viewBox="0 0 22 14" fill="none" xmlns="http://www.w3.org/2000/svg">
<path d="M20.1328 1.01951L20.1327 1.01947L20.13 1.02123L15.8368 3.79019V3.10526C15.8368 1.89214 14.8447 0.9 13.6316 0.9H3.10526C1.89214 0.9 0.9 1.89214 0.9 3.10526V11.5263C0.9 12.7394 1.89214 13.7316 3.10526 13.7316H13.6316C14.8447 13.7316 15.8368 12.7394 15.8368 11.5263V10.8414L20.13 13.6104L20.1298 13.6107L20.1376 13.6148C20.4224 13.7647 20.6689 13.715 20.8416 13.5784C21.0056 13.4488 21.1 13.243 21.1 13.0789V1.52632C21.1 1.36636 21.0154 1.15289 20.8524 1.02096C20.7686 0.953123 20.6629 0.90599 20.5378 0.900905C20.4132 0.895839 20.2773 0.932789 20.1328 1.01951ZM14.5842 11.5263C14.5842 12.05 14.1553 12.4789 13.6316 12.4789H3.10526C2.58154 12.4789 2.15263 12.05 2.15263 11.5263V3.10526C2.15263 2.58154 2.58154 2.15263 3.10526 2.15263H13.6316C14.1553 2.15263 14.5842 2.58154 14.5842 3.10526V11.5263ZM15.8368 5.26508L19.8474 2.6833V11.9483L15.8368 9.3665V5.26508Z" fill="#1B1B1B" stroke="#1B1B1B" stroke-width="0.2"/>
</svg>
