<svg width="22" height="20" viewBox="0 0 22 20" fill="none" xmlns="http://www.w3.org/2000/svg">
<path d="M20.1328 4.01951L20.1327 4.01947L20.13 4.02123L15.8368 6.79019V6.10526C15.8368 4.89214 14.8447 3.9 13.6316 3.9H3.10526C1.89214 3.9 0.9 4.89214 0.9 6.10526V14.5263C0.9 15.7394 1.89214 16.7316 3.10526 16.7316H13.6316C14.8447 16.7316 15.8368 15.7394 15.8368 14.5263V13.8414L20.13 16.6104L20.1298 16.6107L20.1376 16.6148C20.4224 16.7647 20.6689 16.715 20.8416 16.5784C21.0056 16.4488 21.1 16.243 21.1 16.0789V4.52632C21.1 4.36636 21.0154 4.15289 20.8524 4.02096C20.7686 3.95312 20.6629 3.90599 20.5378 3.9009C20.4132 3.89584 20.2773 3.93279 20.1328 4.01951ZM14.5842 14.5263C14.5842 15.05 14.1553 15.4789 13.6316 15.4789H3.10526C2.58154 15.4789 2.15263 15.05 2.15263 14.5263V6.10526C2.15263 5.58154 2.58154 5.15263 3.10526 5.15263H13.6316C14.1553 5.15263 14.5842 5.58154 14.5842 6.10526V14.5263ZM15.8368 8.26508L19.8474 5.6833V14.9483L15.8368 12.3665V8.26508Z" fill="#28A3DA" stroke="#28A3DA" stroke-width="0.2"/>
</svg>
