<svg width="24" height="24" viewBox="0 0 24 24" fill="none" xmlns="http://www.w3.org/2000/svg">
<path d="M1.70191 12.8618H3.83729C3.99936 12.8618 4.14949 12.9427 4.2388 13.076C4.2388 13.076 4.64571 13.6908 5.05184 14.3005C5.27704 12.3029 6.06121 5.32022 6.06121 5.32022C6.08816 5.08988 6.27717 4.90807 6.512 4.89459C6.6247 4.88774 6.7362 4.92093 6.82684 4.9883C6.91748 5.05567 6.98144 5.15289 7.00744 5.26283C7.00744 5.26283 8.0299 9.55268 8.51379 11.5795L9.15399 9.76607C9.1868 9.67257 9.24769 9.59151 9.32832 9.53397C9.40895 9.47643 9.50538 9.44523 9.60442 9.44464C9.70345 9.44405 9.80025 9.4741 9.88156 9.53067C9.96287 9.58724 10.0247 9.66758 10.0586 9.76068C10.0586 9.76068 11.0083 12.3418 11.1985 12.8618H13.0517C13.2138 12.8618 13.3639 12.9427 13.4528 13.076C13.4528 13.076 13.8601 13.6908 14.2655 14.3009C14.4915 12.3033 15.2756 5.32061 15.2756 5.32061C15.2884 5.20804 15.3404 5.10357 15.4225 5.02558C15.5047 4.94759 15.6116 4.90108 15.7247 4.89423C15.8377 4.88737 15.9495 4.92061 16.0404 4.9881C16.1314 5.05559 16.1956 5.15301 16.2219 5.26322L17.7274 11.5799L18.3688 9.76646C18.4016 9.67305 18.4624 9.59206 18.543 9.53458C18.6236 9.4771 18.7199 9.44594 18.8188 9.44534C18.9178 9.44475 19.0145 9.47477 19.0957 9.53129C19.177 9.5878 19.2388 9.66805 19.2727 9.76106C19.2727 9.76106 20.2235 12.3422 20.4133 12.8622H22.3073L22.4082 12.6696C23.3282 11.0857 24 8.1529 24 6.01703C24 3.29182 22.0178 0 18.1551 0C12.6356 0 11.9261 5.17347 11.9261 5.17347C11.9261 5.17347 11.2416 0.0250373 5.72552 0.0250373C1.9991 0.0250373 0 3.19745 0 6.01703C0 8.45219 1.06557 11.4582 1.61145 12.6927L1.70191 12.8618Z" fill="#F15D4A"/>
<path d="M20.0776 13.8247C19.8751 13.8247 19.6953 13.698 19.6264 13.5096L18.8303 11.346L18.0931 13.4384C18.0219 13.6398 17.8275 13.7704 17.6146 13.7577C17.5107 13.7529 17.4113 13.7142 17.3314 13.6476C17.2516 13.581 17.1957 13.4901 17.1723 13.3887L15.9258 8.16284L15.0758 15.7214C15.0646 15.8195 15.0234 15.9118 14.9579 15.9857C14.8924 16.0596 14.8057 16.1115 14.7097 16.1343C14.6138 16.1577 14.5131 16.1509 14.4213 16.115C14.3294 16.0791 14.2508 16.0158 14.1961 15.9336C14.1961 15.9336 13.0297 14.1768 12.7941 13.8243H10.8631C10.7648 13.8242 10.6689 13.7939 10.5883 13.7376C10.5077 13.6812 10.4463 13.6016 10.4123 13.5093L9.61624 11.346C9.36946 12.0433 9.12309 12.7408 8.87712 13.4384C8.8429 13.5364 8.77767 13.6206 8.69133 13.6783C8.60498 13.7359 8.50222 13.7638 8.39861 13.7577C8.29467 13.7526 8.19519 13.7139 8.11514 13.6473C8.0351 13.5808 7.97881 13.49 7.95475 13.3887L6.71056 8.16631L5.86095 15.7214C5.84974 15.8195 5.80862 15.9117 5.74319 15.9856C5.67776 16.0595 5.59119 16.1114 5.49524 16.1343C5.39935 16.1576 5.29861 16.1509 5.20668 16.115C5.11475 16.0791 5.03608 16.0158 4.98131 15.9336C4.98131 15.9336 3.81488 14.1768 3.57929 13.8243H2.22461C5.6754 19.9592 11.926 23.9999 11.926 23.9999C11.926 23.9999 18.2898 19.9585 21.7956 13.8243H20.0779L20.0776 13.8247Z" fill="#F15D4A"/>
</svg>
