<svg width="22" height="29" viewBox="0 0 22 29" fill="none" xmlns="http://www.w3.org/2000/svg">
<path d="M0.333344 28.3333C0.333344 25.5043 1.45715 22.7912 3.45754 20.7908C5.45793 18.7905 8.17103 17.6666 11 17.6666C13.829 17.6666 16.5421 18.7905 18.5425 20.7908C20.5429 22.7912 21.6667 25.5043 21.6667 28.3333H19C19 26.2116 18.1572 24.1768 16.6569 22.6765C15.1566 21.1762 13.1217 20.3333 11 20.3333C8.87828 20.3333 6.84345 21.1762 5.34316 22.6765C3.84286 24.1768 3.00001 26.2116 3.00001 28.3333H0.333344ZM11 16.3333C6.58001 16.3333 3.00001 12.7533 3.00001 8.33331C3.00001 3.91331 6.58001 0.333313 11 0.333313C15.42 0.333313 19 3.91331 19 8.33331C19 12.7533 15.42 16.3333 11 16.3333ZM11 13.6666C13.9467 13.6666 16.3333 11.28 16.3333 8.33331C16.3333 5.38665 13.9467 2.99998 11 2.99998C8.05334 2.99998 5.66668 5.38665 5.66668 8.33331C5.66668 11.28 8.05334 13.6666 11 13.6666Z" fill="white"/>
</svg>
