<svg width="32" height="28" viewBox="0 0 32 28" fill="none" xmlns="http://www.w3.org/2000/svg">
<path fill-rule="evenodd" clip-rule="evenodd" d="M12.8497 4.90733C5.03775 8.02058 0.473746 9.87058 0.349683 9.97408C0.242246 10.0638 0.120121 10.1969 0.0783705 10.27C0.019933 10.3723 0.00199553 12.3106 0.000245534 18.7058C-0.00175447 26.3425 0.00643303 27.0228 0.102121 27.1848C0.159371 27.2817 0.273183 27.3915 0.355058 27.4288C0.569808 27.5266 27.0764 27.5247 27.2678 27.4268C27.3429 27.3884 27.4529 27.297 27.5123 27.2237C27.6124 27.1001 27.6204 26.7562 27.6217 22.5242L27.6231 17.958L29.6216 17.1593C30.7209 16.72 31.6901 16.3056 31.7756 16.2384C32.1342 15.9563 32.2606 16.3247 28.9637 8.04908C27.2884 3.8437 25.8791 0.343956 25.8319 0.271893C25.7316 0.118331 25.4869 -0.00479402 25.292 0.000143483C25.2162 0.00208098 19.6172 2.21033 12.8497 4.90733ZM27.7326 8.35602C29.2484 12.163 30.4978 15.3148 30.509 15.3598C30.5224 15.4142 30.0871 15.6201 29.2168 15.971C28.4949 16.2619 27.8411 16.5164 27.7637 16.5364L27.6231 16.5727V13.4361V10.2995L27.4404 10.1168C27.3399 10.0163 27.2022 9.93414 27.1344 9.93414C27.0315 9.93414 26.9054 9.66845 26.3707 8.32477C25.6184 6.43433 25.4794 6.15308 25.2562 6.06789C25.1658 6.03339 24.7965 5.99208 24.4356 5.97602C23.9791 5.9557 23.6583 5.90433 23.3819 5.80745C22.8773 5.63052 22.1282 5.13145 21.8409 4.78083C21.5532 4.42977 21.3229 4.33239 20.9779 4.41583C20.7301 4.4757 8.26487 9.42195 7.93543 9.59108C7.84937 9.6352 7.7255 9.73045 7.66012 9.80276C7.544 9.93102 7.49556 9.93402 5.629 9.92989C4.1935 9.92677 3.75231 9.90858 3.85918 9.85708C4.01212 9.78339 24.8801 1.45246 24.9404 1.44102C24.9602 1.43721 26.2167 4.54902 27.7326 8.35602ZM21.3315 6.03483C22.0447 6.67608 23.1271 7.14514 24.0961 7.23295L24.5918 7.27789L25.1137 8.57889C25.4007 9.29445 25.6233 9.89227 25.6082 9.90727C25.5932 9.92233 22.1943 9.92752 18.0551 9.91877L10.5293 9.90289L15.7168 7.82858C18.5699 6.6877 20.9283 5.75258 20.9576 5.75045C20.9869 5.74833 21.1552 5.87633 21.3315 6.03483ZM26.3731 18.7154V26.2466H13.8106H1.24806V18.7154V11.1841H13.8106H26.3731V18.7154ZM5.81056 12.5147C5.6535 12.5938 5.56668 12.737 5.29068 13.3716C4.96981 14.1096 4.31206 14.7855 3.56056 15.1494C3.3715 15.241 3.09025 15.3776 2.93556 15.4531C2.72325 15.5568 2.63606 15.644 2.57968 15.8091C2.47431 16.1183 2.47431 21.3125 2.57968 21.6216C2.63131 21.7728 2.72175 21.8724 2.87306 21.9447C2.99337 22.0022 3.3155 22.1543 3.58893 22.2826C4.46012 22.6917 5.05168 23.393 5.52412 24.577C5.70343 25.0263 5.155 24.9999 13.9287 24.9817C22.9251 24.9631 21.9292 25.0416 22.215 24.3277C22.6467 23.2493 23.4591 22.4429 24.4944 22.0655C25.1617 21.8222 25.1274 22.0135 25.1082 18.6386L25.0918 15.7494L24.9356 15.6024C24.8496 15.5215 24.5882 15.3765 24.3546 15.2802C23.3707 14.8746 22.8256 14.3348 22.2793 13.2252C22.0675 12.7949 21.9165 12.5655 21.8106 12.5132C21.5801 12.3993 6.03675 12.4008 5.81056 12.5147ZM21.253 14.0106C21.6522 14.8719 22.5429 15.7778 23.4537 16.2488L23.8726 16.4654L23.8728 18.7175L23.8731 20.9697L23.4929 21.1503C22.5731 21.587 21.7446 22.4219 21.2727 23.3873L21.097 23.7466H13.8364H6.57568L6.27393 23.209C5.78112 22.331 5.06968 21.6359 4.18231 21.1655L3.77931 20.9519L3.76293 18.7064L3.74656 16.4609L4.10668 16.2849C5.09318 15.8027 6.07925 14.7985 6.42125 13.9279L6.517 13.6841H13.8094H21.1017L21.253 14.0106ZM13.0121 15.0251C11.369 15.3995 10.1734 16.8143 10.0778 18.4972C9.97693 20.2731 11.0962 21.8316 12.8418 22.3459C13.4223 22.5169 14.3347 22.4914 14.9668 22.2866C16.1977 21.8874 17.181 20.8263 17.4715 19.5833C17.6103 18.9895 17.5679 18.0437 17.3781 17.4966C16.9911 16.3816 16.0498 15.4635 14.9365 15.1152C14.405 14.9489 13.5269 14.9078 13.0121 15.0251ZM14.7326 16.3836C15.3851 16.6264 15.9091 17.1814 16.1904 17.9276C16.3862 18.4468 16.3424 19.1952 16.0837 19.7479C15.4944 21.0072 13.9938 21.5469 12.7389 20.9509C11.1837 20.2121 10.8353 18.1654 12.0569 16.9438C12.7592 16.2414 13.7777 16.0282 14.7326 16.3836ZM6.49712 17.8873C6.15793 18.0592 5.98762 18.3356 5.98762 18.7143C5.98762 19.2483 6.36481 19.6216 6.90431 19.6216C7.07112 19.6216 7.27762 19.5744 7.38337 19.5123C7.80375 19.2648 7.95681 18.6685 7.71018 18.239C7.58431 18.0198 7.13718 17.7466 6.90431 17.7466C6.83293 17.7466 6.64968 17.8099 6.49712 17.8873ZM20.4944 17.8039C20.2044 17.8955 20.0734 17.9923 19.9337 18.2184C19.8219 18.3993 19.8011 18.5071 19.8242 18.7861C19.8486 19.0794 19.8864 19.1641 20.0785 19.3563C20.2766 19.5544 20.3486 19.5848 20.6667 19.6053C21.1337 19.6353 21.3921 19.4858 21.5706 19.0823C21.7146 18.7567 21.6889 18.4521 21.4943 18.1789C21.2641 17.8556 20.8376 17.6956 20.4944 17.8039ZM7.19125 18.604C7.261 18.7926 7.08931 19.0087 6.88893 18.9846C6.68768 18.9604 6.59293 18.8126 6.64512 18.6046C6.71081 18.3431 7.09462 18.3426 7.19125 18.604ZM20.9968 18.5568C21.0861 18.7236 21.0007 18.9311 20.8247 18.9753C20.6193 19.0268 20.4717 18.9311 20.4476 18.7308C20.4114 18.4294 20.8537 18.2893 20.9968 18.5568Z" fill="white"/>
</svg>
