<svg width="24" height="23" viewBox="0 0 24 23" fill="none" xmlns="http://www.w3.org/2000/svg">
<path d="M10.6664 1.3476C9.99858 0.789365 9.21346 0.388886 8.36946 0.175944C7.52547 -0.0369972 6.64433 -0.0569219 5.79158 0.117652C4.36062 0.413172 3.05659 1.14538 2.05933 2.2133C1.06889 3.25863 0.0659726 4.66071 0.00360219 6.69399C-0.0238408 7.61707 0.0884257 9.11396 0.941653 10.2616C1.71754 11.3493 2.11422 11.9131 2.31879 12.462C2.53584 13.1007 2.54582 13.7843 2.54582 14.8396V14.857C2.56079 15.8849 2.77784 17.3069 3.30424 18.6117C3.82067 19.8891 4.73876 21.2937 6.308 21.8725L6.36039 21.8924L6.41778 21.9074C7.32589 22.1494 8.26893 22.0845 8.99742 21.4084C9.62112 20.8271 9.85064 19.9964 9.97039 19.3527C10.0877 18.744 10.145 18.0379 10.1949 17.3768L10.2124 17.1523C10.2723 16.3963 10.3396 15.6728 10.4793 14.9967C10.8585 13.2454 11.3151 13.0059 11.4049 12.9759C11.9937 12.8213 12.2831 12.9136 12.4328 13.0009C12.6099 13.1007 12.8195 13.3202 13.0166 13.7743C13.4357 14.7348 13.5604 16.1244 13.6777 17.4916C13.7949 18.8313 14.0769 20.146 14.6756 21.0292C14.9925 21.4957 15.4765 21.9523 16.17 22.102C16.8686 22.2567 17.5222 22.0446 18.0561 21.7053C19.9671 20.5003 20.99 18.0454 21.252 15.0017C21.3867 13.5922 21.5289 12.9934 21.721 12.5269C21.8657 12.1801 22.0253 11.9107 22.2823 11.4741C22.437 11.2121 22.6266 10.8903 22.8686 10.4587H22.8711C23.2553 9.7676 23.9189 8.46281 23.9938 6.91104C24.0686 5.27444 23.4823 3.48316 21.5937 1.96881C19.8524 0.546761 18.1808 -0.00958344 16.6415 0.0677559C15.1197 0.145095 13.9122 0.836159 13.059 1.56714L13.024 1.59957L12.9916 1.63201C12.2282 2.39542 12.0012 2.38544 11.9937 2.38544C11.9887 2.38544 11.9014 2.38045 11.6893 2.24074C11.356 2.00581 11.0476 1.73748 10.7687 1.43991L10.7188 1.39001L10.6689 1.3451L10.6664 1.3476ZM16.5168 3.78753C17.365 3.78753 18.2507 4.04449 18.9617 4.67568C19.6802 5.31435 20.1093 6.23494 20.2041 7.34514C20.2219 7.51013 20.2066 7.67702 20.1591 7.83602C20.1116 7.99503 20.0329 8.14296 19.9275 8.27115C19.8221 8.39934 19.6922 8.50522 19.5454 8.58257C19.3986 8.65993 19.2378 8.70721 19.0725 8.72165C18.9072 8.73609 18.7406 8.7174 18.5826 8.66667C18.4246 8.61594 18.2783 8.53419 18.1523 8.42622C18.0263 8.31824 17.9231 8.1862 17.8487 8.03784C17.7744 7.88947 17.7304 7.72777 17.7193 7.56218C17.6694 6.9759 17.4698 6.689 17.3052 6.53931C17.0831 6.35925 16.8023 6.26771 16.5168 6.28234C16.186 6.28234 15.8687 6.15092 15.6347 5.91699C15.4008 5.68305 15.2694 5.36577 15.2694 5.03494C15.2694 4.7041 15.4008 4.38682 15.6347 4.15288C15.8687 3.91895 16.186 3.78753 16.5168 3.78753Z" fill="#28A3DA"/>
</svg>
