<svg width="50" height="50" viewBox="0 0 50 50" fill="none" xmlns="http://www.w3.org/2000/svg">
<circle cx="25" cy="25" r="25" fill="#AAFFC7"/>
<path d="M36 32C36 32.5304 35.7893 33.0391 35.4142 33.4142C35.0391 33.7893 34.5304 34 34 34H16C15.4696 34 14.9609 33.7893 14.5858 33.4142C14.2107 33.0391 14 32.5304 14 32V21C14 20.4696 14.2107 19.9609 14.5858 19.5858C14.9609 19.2107 15.4696 19 16 19H20L22 16H28L30 19H34C34.5304 19 35.0391 19.2107 35.4142 19.5858C35.7893 19.9609 36 20.4696 36 21V32Z" stroke="#00B53D" stroke-width="2" stroke-linecap="round" stroke-linejoin="round"/>
<path d="M25 30C27.2091 30 29 28.2091 29 26C29 23.7909 27.2091 22 25 22C22.7909 22 21 23.7909 21 26C21 28.2091 22.7909 30 25 30Z" stroke="#00B53D" stroke-width="2" stroke-linecap="round" stroke-linejoin="round"/>
</svg>
