<svg width="50" height="50" viewBox="0 0 50 50" fill="none" xmlns="http://www.w3.org/2000/svg">
<circle cx="25" cy="25" r="25" fill="#F15D4A"/>
<path d="M14 14L36 36" stroke="#E0E0E0" stroke-width="2" stroke-linecap="round" stroke-linejoin="round"/>
<path d="M28.28 28.28C27.9481 28.765 27.5134 29.171 27.0068 29.469C26.5002 29.7669 25.9342 29.9496 25.3489 30.004C24.7637 30.0584 24.1737 29.9831 23.6209 29.7836C23.0681 29.5841 22.566 29.2652 22.1504 28.8496C21.7348 28.434 21.4159 27.9319 21.2164 27.3791C21.0169 26.8263 20.9416 26.2363 20.996 25.6511C21.0504 25.0658 21.2331 24.4998 21.531 23.9932C21.829 23.4866 22.235 23.0519 22.72 22.72M34 34H16C15.4696 34 14.9609 33.7893 14.5858 33.4142C14.2107 33.0391 14 32.5304 14 32V21C14 20.4696 14.2107 19.9609 14.5858 19.5858C14.9609 19.2107 15.4696 19 16 19H19L34 34ZM22 16H28L30 19H34C34.5304 19 35.0391 19.2107 35.4142 19.5858C35.7893 19.9609 36 20.4696 36 21V30.34L22 16Z" stroke="#E0E0E0" stroke-width="2" stroke-linecap="round" stroke-linejoin="round"/>
</svg>
