<svg width="27" height="24" viewBox="0 0 27 24" fill="none" xmlns="http://www.w3.org/2000/svg">
<path fill-rule="evenodd" clip-rule="evenodd" d="M21.3333 12C21.3333 11.264 21.9306 10.6666 22.6666 10.6666C23.4026 10.6666 23.9999 11.264 23.9999 12C23.9999 12.736 23.4026 13.3333 22.6666 13.3333C21.9306 13.3333 21.3333 12.736 21.3333 12ZM22.6665 16C24.8718 16 26.6665 14.2053 26.6665 12C26.6665 9.79468 24.8718 8.00002 22.6665 8.00002C20.9305 8.00002 19.4652 9.11868 18.9132 10.6667L1.33317 10.6667C0.595831 10.6667 -0.000167847 11.2627 -0.000167847 12C-0.000167847 12.7373 0.595831 13.3333 1.33317 13.3333L18.9132 13.3333C19.4652 14.8813 20.9305 16 22.6665 16ZM5.33338 3.99999C5.33338 3.26399 5.93072 2.66666 6.66672 2.66666C7.40272 2.66666 8.00005 3.26399 8.00005 3.99999C8.00005 4.73599 7.40272 5.33333 6.66672 5.33333C5.93072 5.33333 5.33338 4.73599 5.33338 3.99999ZM10.4198 5.33333L25.3332 5.33333C26.0705 5.33333 26.6665 4.73733 26.6665 4C26.6665 3.26267 26.0705 2.66667 25.3332 2.66667L10.4198 2.66667C9.86783 1.11867 8.4025 0 6.6665 0C4.9305 0 3.46516 1.11867 2.91316 2.66667H1.33317C0.595831 2.66667 -0.000167847 3.26267 -0.000167847 4C-0.000167847 4.73733 0.595831 5.33333 1.33317 5.33333H2.91316C3.46516 6.88133 4.9305 8 6.6665 8C8.4025 8 9.86783 6.88133 10.4198 5.33333ZM10.6665 20C10.6665 19.264 11.2638 18.6667 11.9998 18.6667C12.7358 18.6667 13.3332 19.264 13.3332 20C13.3332 20.736 12.7358 21.3333 11.9998 21.3333C11.2638 21.3333 10.6665 20.736 10.6665 20ZM11.9998 24C13.7358 24 15.2012 22.8813 15.7532 21.3333H25.3332C26.0705 21.3333 26.6665 20.7373 26.6665 20C26.6665 19.2627 26.0705 18.6667 25.3332 18.6667H15.7532C15.2012 17.1187 13.7358 16 11.9998 16C10.2638 16 8.7985 17.1187 8.2465 18.6667H1.33317C0.595831 18.6667 -0.000167847 19.2627 -0.000167847 20C-0.000167847 20.7373 0.595831 21.3333 1.33317 21.3333H8.2465C8.7985 22.8813 10.2638 24 11.9998 24Z" fill="#28A3DA"/>
</svg>
